<?xml version="1.0"?>
<svg xmlns:rdf="http://www.w3.org/1999/02/22-rdf-syntax-ns#" xmlns="http://www.w3.org/2000/svg" xmlns:ns="http://creativecommons.org/ns#" xmlns:cc="http://web.resource.org/cc/" xmlns:xlink="http://www.w3.org/1999/xlink" xmlns:dc="http://purl.org/dc/elements/1.1/" xmlns:svg="http://www.w3.org/2000/svg" id="svg5841" viewBox="0 0 293.3 561.12" version="1.0">
  <g id="layer1" transform="translate(372.29 -175.79)">
    <text id="text10835" font-size="12px" xml:space="preserve" y="671.36218" x="-224" font-family="Bitstream Vera Sans" fill="#000000">
      <tspan id="tspan10837" y="671.36218" x="-224"/>
    </text>
    <text id="text10843" font-size="12px" xml:space="preserve" y="670.36218" x="-136" font-family="Bitstream Vera Sans" fill="#000000">
      <tspan id="tspan10845" y="670.36218" x="-136"/>
    </text>
    <rect id="rect5996" stroke-opacity="0" ry="43.522" height="517.43" width="249.6" y="197.64" x="-350.44"/>
    <path id="text10478" d="m-298.36 516.54h2.32v-6.59l-2.38 0.49v-1.79l2.37-0.49h2.5v8.38h2.33v1.82h-7.14v-1.82" fill="#fff"/>
    <rect id="rect10514" stroke-linejoin="round" ry="15" height="30" width="50" stroke="#fff" y="498.36" x="-320" stroke-width="2.6" fill="none"/>
    <path id="text10498" d="m-153.48 512.86c0.69 0.18 1.21 0.49 1.57 0.93s0.54 0.99 0.54 1.67c0 1.02-0.39 1.79-1.17 2.31-0.77 0.53-1.9 0.79-3.39 0.79-0.52 0-1.05-0.04-1.57-0.13-0.53-0.08-1.05-0.21-1.56-0.38v-2.03c0.49 0.25 0.98 0.44 1.46 0.56 0.49 0.13 0.97 0.19 1.43 0.19 0.7 0 1.24-0.12 1.6-0.36 0.38-0.24 0.57-0.59 0.57-1.04 0-0.47-0.2-0.82-0.58-1.05-0.38-0.25-0.94-0.37-1.68-0.37h-1.05v-1.69h1.1c0.66 0 1.16-0.1 1.48-0.31s0.49-0.53 0.49-0.95c0-0.39-0.16-0.7-0.48-0.91-0.31-0.21-0.75-0.32-1.33-0.32-0.42 0-0.85 0.05-1.28 0.14-0.44 0.1-0.87 0.24-1.3 0.43v-1.93c0.52-0.15 1.04-0.26 1.55-0.33s1.01-0.11 1.5-0.11c1.33 0 2.32 0.22 2.98 0.66 0.66 0.43 0.99 1.08 0.99 1.96 0 0.6-0.16 1.09-0.47 1.47-0.32 0.38-0.78 0.64-1.4 0.8" fill="#fff"/>
    <rect id="rect10551" stroke-linejoin="round" ry="15" height="30" width="50" stroke="#fff" y="498.36" x="-180" stroke-width="2.6" fill="none"/>
    <path id="text10502" d="m-158.6 628.14v-1.89c0.42 0.2 0.82 0.34 1.2 0.44 0.39 0.1 0.77 0.15 1.14 0.15 0.78 0 1.39-0.22 1.83-0.65 0.44-0.44 0.7-1.09 0.77-1.94-0.31 0.22-0.64 0.4-0.99 0.51s-0.73 0.17-1.14 0.17c-1.04 0-1.89-0.3-2.53-0.91s-0.96-1.41-0.96-2.4c0-1.1 0.36-1.98 1.07-2.64 0.72-0.66 1.67-0.99 2.87-0.99 1.33 0 2.36 0.44 3.09 1.34s1.1 2.17 1.1 3.81c0 1.69-0.43 3.01-1.28 3.98-0.85 0.96-2.02 1.44-3.51 1.44-0.48 0-0.94-0.04-1.37-0.11-0.44-0.07-0.87-0.17-1.29-0.31m3.25-4.92c0.46 0 0.81-0.15 1.04-0.44 0.23-0.3 0.35-0.75 0.35-1.35 0-0.59-0.12-1.04-0.35-1.34s-0.58-0.45-1.04-0.45-0.81 0.15-1.04 0.45-0.35 0.75-0.35 1.34c0 0.6 0.12 1.05 0.35 1.35 0.23 0.29 0.58 0.44 1.04 0.44" fill="#fff"/>
    <rect id="rect10556" stroke-linejoin="round" ry="15" height="30" width="50" stroke="#fff" y="608.36" x="-180" stroke-width="2.6" fill="none"/>
    <path id="text10482" d="m-299.06 618.16h7.69v1.48l-3.98 8.72h-2.57l3.77-8.27h-4.91v-1.93" fill="#fff"/>
    <rect id="rect10558" stroke-linejoin="round" ry="15" height="30" width="50" stroke="#fff" y="608.36" x="-320" stroke-width="2.6" fill="none"/>
    <path id="text10490" d="m-228.52 563.16h6.55v1.93h-4.45v1.58c0.2-0.05 0.4-0.1 0.6-0.12 0.21-0.04 0.42-0.05 0.64-0.05 1.24 0 2.21 0.31 2.9 0.94 0.7 0.62 1.04 1.48 1.04 2.59s-0.37 1.97-1.13 2.59c-0.75 0.63-1.8 0.94-3.14 0.94-0.58 0-1.15-0.06-1.72-0.17s-1.13-0.28-1.69-0.51v-2.07c0.56 0.32 1.08 0.56 1.58 0.72s0.97 0.24 1.41 0.24c0.64 0 1.14-0.16 1.51-0.47s0.55-0.73 0.55-1.27c0-0.53-0.18-0.96-0.55-1.27s-0.87-0.46-1.51-0.46c-0.37 0-0.78 0.05-1.21 0.15-0.42 0.09-0.88 0.24-1.38 0.45v-5.74" fill="#fff"/>
    <path id="text10510" d="m-225.13 623.8c-0.49 0-0.87 0.13-1.13 0.4-0.27 0.27-0.4 0.65-0.4 1.15 0 0.51 0.13 0.89 0.4 1.16 0.26 0.26 0.64 0.4 1.13 0.4s0.87-0.14 1.13-0.4c0.25-0.27 0.38-0.65 0.38-1.16 0-0.5-0.13-0.89-0.38-1.15-0.26-0.27-0.64-0.4-1.13-0.4m-1.92-0.87c-0.62-0.19-1.08-0.48-1.4-0.86-0.31-0.39-0.47-0.87-0.47-1.45 0-0.86 0.32-1.52 0.96-1.97 0.65-0.45 1.59-0.68 2.83-0.68s2.18 0.23 2.82 0.68c0.64 0.44 0.96 1.1 0.96 1.97 0 0.58-0.16 1.06-0.47 1.45-0.32 0.38-0.79 0.67-1.41 0.86 0.7 0.19 1.22 0.5 1.57 0.93 0.36 0.43 0.53 0.97 0.53 1.63 0 1.01-0.33 1.78-1.01 2.3-0.67 0.51-1.66 0.77-2.99 0.77-1.32 0-2.32-0.26-3-0.77-0.68-0.52-1.02-1.29-1.02-2.3 0-0.66 0.18-1.2 0.53-1.63 0.36-0.43 0.88-0.74 1.57-0.93m0.62-2.05c0 0.41 0.11 0.72 0.33 0.94 0.23 0.22 0.55 0.33 0.97 0.33 0.41 0 0.73-0.11 0.95-0.33 0.23-0.22 0.34-0.53 0.34-0.94 0-0.4-0.11-0.71-0.34-0.93-0.22-0.21-0.54-0.32-0.95-0.32-0.42 0-0.74 0.11-0.97 0.32-0.22 0.22-0.33 0.53-0.33 0.93" fill="#fff"/>
    <rect id="rect10562" stroke-linejoin="round" ry="15" height="30" width="50" stroke="#fff" y="608.36" x="-250" stroke-width="2.6" fill="none"/>
    <path id="text10486" d="m-154.93 568.32c-0.46 0-0.81 0.15-1.04 0.46-0.23 0.29-0.35 0.74-0.35 1.34 0 0.59 0.12 1.04 0.35 1.34s0.58 0.45 1.04 0.45 0.81-0.15 1.03-0.45c0.24-0.3 0.35-0.75 0.35-1.34 0-0.6-0.11-1.05-0.35-1.34-0.22-0.31-0.57-0.46-1.03-0.46m3.25-4.9v1.89c-0.43-0.21-0.84-0.36-1.22-0.45-0.39-0.1-0.76-0.15-1.13-0.15-0.78 0-1.39 0.22-1.83 0.65-0.43 0.44-0.69 1.08-0.76 1.94 0.3-0.22 0.62-0.39 0.97-0.5 0.36-0.11 0.74-0.17 1.15-0.17 1.05 0 1.89 0.3 2.53 0.91 0.64 0.62 0.96 1.42 0.96 2.4 0 1.1-0.36 1.98-1.07 2.64-0.72 0.65-1.68 0.98-2.88 0.98-1.33 0-2.36-0.45-3.08-1.34-0.73-0.9-1.09-2.17-1.09-3.81 0-1.69 0.42-3.01 1.27-3.98 0.85-0.96 2.02-1.44 3.5-1.44 0.47 0 0.92 0.03 1.37 0.1 0.44 0.08 0.88 0.19 1.31 0.33" fill="#fff"/>
    <rect id="rect10564" stroke-linejoin="round" ry="15" height="30" width="50" stroke="#fff" y="553.36" x="-180" stroke-width="2.6" fill="none"/>
    <path id="text10494" d="m-294.85 565.32l-2.88 4.28h2.88v-4.28m-0.43-2.16h2.92v6.44h1.46v1.9h-1.46v1.86h-2.49v-1.86h-4.52v-2.25l4.09-6.09" fill="#fff"/>
    <rect id="rect10566" stroke-linejoin="round" ry="15" height="30" width="50" stroke="#fff" y="553.36" x="-320" stroke-width="2.6" fill="none"/>
    <path id="text10547" d="m-224.97 516.43h4.49v1.93h-7.41v-1.93l3.72-3.29c0.34-0.3 0.58-0.6 0.74-0.88 0.16-0.29 0.24-0.59 0.24-0.9 0-0.48-0.16-0.86-0.48-1.15s-0.75-0.44-1.28-0.44c-0.41 0-0.86 0.09-1.35 0.27-0.49 0.17-1.01 0.43-1.57 0.78v-2.25c0.6-0.19 1.18-0.34 1.76-0.44 0.58-0.11 1.15-0.16 1.7-0.16 1.23 0 2.17 0.27 2.85 0.81s1.02 1.29 1.02 2.25c0 0.55-0.15 1.07-0.43 1.56-0.29 0.47-0.9 1.12-1.82 1.92l-2.18 1.92" fill="#fff"/>
    <rect id="rect10568" stroke-linejoin="round" ry="15" height="30" width="50" stroke="#fff" y="498.36" x="-249" stroke-width="2.6" fill="none"/>
    <rect id="rect10661" ry="22.834" height="180.27" width="209.75" y="252.09" x="-329.75" fill="#868686"/>
    <rect id="rect10665" stroke-linejoin="round" ry="22.834" height="160" width="190" stroke="#fff" y="262.36" x="-320" stroke-width="2.6" fill="#70b3eb"/>
    <path id="path10685" transform="translate(-34,-248)" fill="#fff" d="m-140 472.36a50 10 0 1 1 -100 0 50 10 0 1 1 100 0z"/>
    <path id="path10693" transform="translate(72.561 4.8232)" d="m-290 219.86a7.5 2.5 0 1 1 -15 0 7.5 2.5 0 1 1 15 0z"/>
    <path id="path10697" transform="matrix(1 0 0 .26667 42.5 578.73)" fill="#fff" d="m-260 474.86a7.5 7.5 0 1 1 -15 0 7.5 7.5 0 1 1 15 0z"/>
    <rect id="rect10699" stroke-linejoin="round" ry="11.868" height="40" width="60" stroke="#fff" y="447.36" x="-325" stroke-width="2.6" fill="#34d933"/>
    <rect id="rect10831" stroke-linejoin="round" ry="11.868" height="40" width="60" stroke="#fff" y="447.36" x="-185" stroke-width="2.6" fill="#d50010"/>
    <rect id="rect10833" stroke-linejoin="round" ry="15" height="30" width="50" stroke="#fff" y="662.36" x="-320" stroke-width="2.6" fill="none"/>
    <path id="text10839" d="m-290.96 676.04l-2.25 1.19 2.25 1.18-0.52 0.97-2.27-1.26v2.35h-1.17v-2.35l-2.28 1.26-0.52-0.97 2.28-1.18-2.28-1.19 0.52-0.96 2.28 1.24v-2.35h1.17v2.35l2.27-1.24 0.52 0.96" fill="#fff"/>
    <path id="text10851" d="m-223.56 677.25c0-1.28-0.12-2.17-0.36-2.69-0.24-0.53-0.64-0.79-1.21-0.79-0.56 0-0.96 0.26-1.21 0.79-0.24 0.52-0.36 1.41-0.36 2.69 0 1.29 0.12 2.2 0.36 2.73 0.25 0.53 0.65 0.79 1.21 0.79s0.97-0.26 1.21-0.79 0.36-1.44 0.36-2.73m2.63 0.02c0 1.69-0.36 3-1.09 3.92-0.73 0.91-1.77 1.37-3.11 1.37s-2.38-0.46-3.11-1.37c-0.73-0.92-1.09-2.23-1.09-3.92 0-1.7 0.36-3 1.09-3.92s1.77-1.38 3.11-1.38 2.38 0.46 3.11 1.38 1.09 2.22 1.09 3.92" fill="#fff"/>
    <rect id="rect10866" stroke-linejoin="round" ry="15" height="30" width="50" stroke="#fff" y="662.36" x="-250" stroke-width="2.6" fill="none"/>
    <path id="text10847" d="m-153.77 672.31l-0.66 2.64h1.81l0.66-2.64h1.51l-0.66 2.64h1.89v1.45h-2.26l-0.47 1.87h1.94v1.47h-2.29l-0.66 2.62h-1.51l0.66-2.62h-1.81l-0.65 2.62h-1.53l0.66-2.62h-1.91v-1.47h2.24l0.48-1.87h-1.93v-1.45h2.31l0.65-2.64h1.53m0.77 4.09h-1.8l-0.48 1.87h1.8l0.48-1.87" fill="#fff"/>
    <rect id="rect10873" stroke-linejoin="round" ry="15" height="30" width="50" stroke="#fff" y="662.36" x="-180" stroke-width="2.6" fill="none"/>
    <path id="path10880" stroke-linejoin="round" d="m-510 362.36a20 20 0 1 1 -40 0 20 20 0 1 1 40 0z" transform="translate(305.14 106)" stroke="#fff" stroke-width="2.6" fill="#0025d5"/>
    <path id="path10882" transform="translate(265.14 86)" fill="#00c7d5" d="m-480 382.36a10 10 0 1 1 -20 0 10 10 0 1 1 20 0z"/>
    <g id="g10572" transform="translate(-70,271)" fill="none">
      <rect id="rect10560" stroke-linejoin="round" ry="15" height="30" width="50" stroke="#fff" y="282.36" x="-180" stroke-width="2.6" fill="none"/>
    </g>
  </g>
  <metadata>
    <rdf:RDF>
      <cc:Work>
        <dc:format>image/svg+xml</dc:format>
        <dc:type rdf:resource="http://purl.org/dc/dcmitype/StillImage"/>
        <cc:license rdf:resource="http://creativecommons.org/licenses/publicdomain/"/>
        <dc:publisher>
          <cc:Agent rdf:about="http://openclipart.org/">
            <dc:title>Openclipart</dc:title>
          </cc:Agent>
        </dc:publisher>
        <dc:title>Mobile Phone</dc:title>
        <dc:date>2008-03-30T16:32:09</dc:date>
        <dc:description>Simple mobile phone - very useful for communications diagrams - the other available ones are bitmaps and do not scale well.</dc:description>
        <dc:source>http://openclipart.org/detail/16375/mobile-phone-by-silverstreak-16375</dc:source>
        <dc:creator>
          <cc:Agent>
            <dc:title>silverstreak</dc:title>
          </cc:Agent>
        </dc:creator>
        <dc:subject>
          <rdf:Bag>
            <rdf:li>cellphone</rdf:li>
            <rdf:li>cellular phone</rdf:li>
            <rdf:li>clip art</rdf:li>
            <rdf:li>clipart</rdf:li>
            <rdf:li>handy</rdf:li>
            <rdf:li>how i did it</rdf:li>
            <rdf:li>image</rdf:li>
            <rdf:li>media</rdf:li>
            <rdf:li>mobile phone</rdf:li>
            <rdf:li>mobile station</rdf:li>
            <rdf:li>png</rdf:li>
            <rdf:li>public domain</rdf:li>
            <rdf:li>svg</rdf:li>
          </rdf:Bag>
        </dc:subject>
      </cc:Work>
      <cc:License rdf:about="http://creativecommons.org/licenses/publicdomain/">
        <cc:permits rdf:resource="http://creativecommons.org/ns#Reproduction"/>
        <cc:permits rdf:resource="http://creativecommons.org/ns#Distribution"/>
        <cc:permits rdf:resource="http://creativecommons.org/ns#DerivativeWorks"/>
      </cc:License>
    </rdf:RDF>
  </metadata>
</svg>
